<?xml version="1.0" standalone="no"?>
<!DOCTYPE svg PUBLIC "-//W3C//DTD SVG 20010904//EN"
 "http://www.w3.org/TR/2001/REC-SVG-20010904/DTD/svg10.dtd">
<svg version="1.0" xmlns="http://www.w3.org/2000/svg"
 width="300.000000pt" height="300.000000pt" viewBox="0 0 300.000000 300.000000"
 preserveAspectRatio="xMidYMid meet">
<metadata>
Created by potrace 1.10, written by Peter Selinger 2001-2011
</metadata>
<g transform="translate(0.000000,300.000000) scale(0.100000,-0.100000)"
fill="#000000" stroke="none">
<path d="M1195 2183 c-16 -3 -38 -11 -49 -19 -13 -9 -47 -14 -97 -14 -61 0
-81 -4 -102 -20 -23 -18 -37 -20 -140 -16 -84 3 -120 1 -133 -9 -16 -11 -12
-13 32 -19 96 -11 284 -18 284 -10 0 4 -7 15 -16 25 -15 17 -11 18 91 12 107
-6 107 -6 100 16 l-7 22 434 -3 433 -3 56 -26 c188 -88 252 -311 147 -510 -39
-75 -113 -156 -185 -204 -32 -22 -62 -43 -68 -47 -5 -5 43 -5 107 -2 129 8
127 8 143 -64 l7 -34 -116 4 c-84 2 -115 0 -112 -8 3 -7 10 -30 17 -53 l12
-41 109 0 c119 0 110 5 132 -67 7 -23 7 -23 -104 -23 -104 0 -111 -1 -105 -19
3 -10 11 -38 18 -62 l13 -44 119 -5 c117 -5 119 -6 126 -30 18 -65 34 -61
-238 -58 l-247 3 -88 325 c-48 179 -87 330 -87 335 -1 6 29 10 67 11 114 2
228 69 272 160 28 57 24 136 -8 181 -39 54 -69 62 -266 64 l-178 2 -49 -234
c-145 -709 -170 -823 -181 -836 -8 -10 -38 -13 -127 -11 -109 3 -116 4 -115
23 1 11 49 249 109 528 59 280 106 509 104 511 -10 7 -184 55 -187 51 -2 -2 3
-14 12 -27 21 -29 20 -41 -1 -29 -26 13 -369 136 -433 155 l-55 16 26 -24 c26
-23 423 -176 456 -176 9 0 25 7 35 17 15 14 24 14 58 4 47 -14 49 -26 24 -131
-8 -36 -26 -119 -39 -185 -13 -66 -37 -181 -53 -255 -99 -462 -97 -453 -78
-482 21 -33 71 -43 181 -36 61 4 80 9 100 28 30 28 33 37 90 316 83 400 145
702 145 707 0 3 7 13 16 21 12 13 40 16 137 16 151 -1 194 -10 230 -50 31 -35
36 -89 14 -143 -32 -74 -157 -147 -252 -147 -50 0 -85 -25 -85 -60 0 -32 160
-623 175 -647 27 -40 73 -47 304 -40 180 6 217 10 233 23 27 25 23 76 -8 113
-25 30 -27 31 -118 31 -91 0 -116 8 -116 37 0 9 20 13 73 13 65 0 76 3 97 25
21 23 22 28 12 63 -19 62 -38 72 -141 79 -50 3 -91 9 -91 13 0 4 34 10 76 13
95 7 118 24 111 80 -8 57 -40 87 -94 87 -24 0 -43 5 -43 11 0 5 19 31 43 55
101 108 149 218 150 344 1 172 -84 298 -244 362 -52 21 -71 22 -449 24 -217 1
-408 0 -425 -3z"/>
</g>
</svg>
